<svg height="512pt" viewBox="0 0 512 512" width="512pt" xmlns="http://www.w3.org/2000/svg"><path d="m343.808594 246.355469-2.476563 43.777343c-1.796875 12.941407-7.792969 24.933594-17.066406 34.132813l-34.132813 34.132813c-4.15625 5.21875-10.398437 8.339843-17.066406 8.535156h-34.132812c-9.355469.90625-18.660156-2.195313-25.601563-8.535156l-25.597656-25.597657c-9.476563-12.398437-15.375-27.15625-17.066406-42.667969l-1.28125-22.269531-1.28125-21.675781c4.523437 11.605469 11.09375 12.289062 19.628906 18.347656 3.214844 2.3125 6.75 4.152344 10.496094 5.460938 10.871093 4.589844 23.421875 2.460937 32.167969-5.460938 4.253906-4.472656 8.816406-8.636718 13.65625-12.460937 3.347656-2.851563 7.550781-4.503907 11.945312-4.691407 7.679688 0 14.164062 5.714844 25.601562 17.152344 2.367188 2.390625 5.21875 4.253906 8.359376 5.460938 9.457031 3.597656 20.019531 2.816406 28.84375-2.132813 1.894531-.984375 3.71875-2.097656 5.460937-3.328125 8.449219-6.058594 15.105469-6.65625 19.542969-18.179687zm0 0" fill="#283593"/><path d="m320 246.355469-1.195312 21.507812-1.28125 22.269531c-1.796876 12.941407-7.789063 24.933594-17.066407 34.132813l-34.132812 34.132813c-4.15625 5.21875-10.398438 8.339843-17.066407 8.535156h-10.324218c-9.355469.90625-18.660156-2.195313-25.601563-8.535156l-25.597656-25.597657c-9.476563-12.398437-15.375-27.15625-17.066406-42.667969l-1.28125-22.269531c8.824219 4.949219 19.386719 5.730469 28.84375 2.132813 3.125-1.238282 5.972656-3.097656 8.363281-5.460938 11.433594-11.4375 17.917969-17.152344 25.597656-17.152344 4.371094.175782 8.554688 1.828126 11.863282 4.691407 4.886718 3.796875 9.480468 7.964843 13.738281 12.460937 8.746093 7.921875 21.296875 10.050782 32.167969 5.460938 3.746093-1.308594 7.28125-3.148438 10.496093-5.460938 8.449219-6.058594 15.105469-6.65625 19.542969-18.179687zm0 0" fill="#3f51b5"/><path d="m236.800781 194.816406c1.386719.9375 3.019531 1.441406 4.691407 1.449219h-19.625c-1.675782-.007813-3.308594-.511719-4.695313-1.449219l-19.113281-12.714844c3.980468-1.351562 8.105468-2.238281 12.289062-2.644531 1.921875-.160156 3.839844.320313 5.460938 1.363281zm0 0" fill="#00838f"/><path d="m351.742188 197.71875c.304687 16.558594-2.382813 33.035156-7.933594 48.636719-3.761719 10.625-10.554688 19.910156-19.542969 26.710937-9.175781 7.105469-21.199219 9.390625-32.339844 6.144532 4.558594-1.308594 8.859375-3.386719 12.714844-6.144532 8.984375-6.800781 15.78125-16.085937 19.539063-26.710937 5.550781-15.601563 8.242187-32.078125 7.9375-48.636719-10.582032-3.414062-24.40625-11.4375-37.800782-15.617188l1.875-1.28125c1.621094-1.042968 3.539063-1.523437 5.460938-1.363281 16.8125 1.363281 36.183594 13.824219 50.089844 18.261719zm0 0" fill="#00838f"/><path d="m332.117188 197.71875c.304687 16.558594-2.386719 33.035156-7.9375 48.636719-3.757813 10.625-10.554688 19.910156-19.539063 26.710937-3.855469 2.757813-8.15625 4.835938-12.714844 6.144532-3.898437-1.160157-7.445312-3.273438-10.324219-6.144532-11.4375-11.433594-17.921874-17.152344-25.601562-17.152344-3.515625.105469-6.925781 1.234376-9.8125 3.242188-5.742188 4.0625-11.035156 8.726562-15.789062 13.910156-8.082032 7.421875-19.597657 9.78125-29.949219 6.144532-4.558594-1.308594-8.859375-3.386719-12.714844-6.144532-9.035156-6.84375-15.863281-16.191406-19.628906-26.878906-5.359375-15.585938-7.960938-31.988281-7.679688-48.46875 10.582031-3.414062 24.234375-11.4375 37.632813-15.617188l19.113281 12.714844c1.386719.9375 3.019531 1.441406 4.695313 1.449219h48.640624c1.671876-.007813 3.304688-.511719 4.691407-1.449219l19.117187-12.714844c13.394532 4.179688 27.21875 12.203126 37.800782 15.617188zm0 0" fill="#00bcd4"/><path d="m294.316406 182.101562-19.117187 12.714844c-1.386719.9375-3.019531 1.441406-4.691407 1.449219h-19.628906c1.675782-.007813 3.308594-.511719 4.695313-1.449219l20.992187-13.996094c1.617188-1.042968 3.539063-1.523437 5.460938-1.363281 4.183594.40625 8.304687 1.292969 12.289062 2.644531zm0 0" fill="#00838f"/><g fill="#c52828"><path d="m247.464844 8.535156h17.070312c4.710938 0 8.53125 3.820313 8.53125 8.53125v85.332032h-25.601562c-4.710938 0-8.53125-3.820313-8.53125-8.53125v-76.800782c0-4.710937 3.820312-8.53125 8.53125-8.53125zm0 0"/><path d="m247.464844 409.601562h17.070312c4.710938 0 8.53125 3.820313 8.53125 8.53125v76.800782c0 4.710937-3.820312 8.53125-8.53125 8.53125h-17.070312c-4.710938 0-8.53125-3.820313-8.53125-8.53125v-76.800782c0-4.710937 3.820312-8.53125 8.53125-8.53125zm0 0"/><path d="m503.464844 247.464844v17.070312c0 4.710938-3.820313 8.53125-8.53125 8.53125h-76.800782c-4.710937 0-8.53125-3.820312-8.53125-8.53125v-17.070312c0-4.710938 3.820313-8.53125 8.53125-8.53125h76.800782c4.710937 0 8.53125 3.820312 8.53125 8.53125zm0 0"/><path d="m102.398438 247.464844v17.070312c0 4.710938-3.820313 8.53125-8.53125 8.53125h-76.800782c-4.710937 0-8.53125-3.820312-8.53125-8.53125v-17.070312c0-4.710938 3.820313-8.53125 8.53125-8.53125h76.800782c4.710937 0 8.53125 3.820312 8.53125 8.53125zm0 0"/><path d="m477.183594 238.933594h-34.21875c-8.371094-90.03125-79.835938-161.25-169.898438-169.300782v-34.132812c108.902344 8.183594 195.566406 94.558594 204.117188 203.433594zm0 0"/><path d="m477.183594 273.066406c-8.550782 108.875-95.214844 195.25-204.117188 203.433594v-34.132812c90.0625-8.050782 161.527344-79.269532 169.898438-169.300782zm0 0"/></g><path d="m454.398438 238.933594h-11.433594c-8.371094-90.03125-79.835938-161.25-169.898438-169.300782v-31.148437c98.996094 17.800781 173.507813 100.167969 181.332032 200.449219zm0 0" fill="#f44335"/><path d="m238.933594 35.585938v34.132812c-89.761719 8.335938-160.839844 79.449219-169.132813 169.214844h-34.214843c7.78125-100.011719 81.898437-182.257813 180.5625-200.363282 7.539062-1.382812 15.144531-2.378906 22.785156-2.984374zm0 0" fill="#f44335"/><path d="m454.398438 273.066406c-7.824219 100.28125-82.335938 182.648438-181.332032 200.449219v-31.148437c90.0625-8.050782 161.527344-79.269532 169.898438-169.300782zm0 0" fill="#f44335"/><path d="m238.933594 442.28125v34.132812c-7.640625-.605468-15.246094-1.601562-22.785156-2.984374-98.664063-18.105469-172.78125-100.351563-180.5625-200.363282h34.214843c8.292969 89.765625 79.371094 160.878906 169.132813 169.214844zm0 0" fill="#f44335"/><path d="m185.855469 189.355469 2.390625 1.621093c-9.410156 1.636719-18.703125 3.886719-27.820313 6.742188-1.363281.425781-2.730469.851562-4.011719 1.277344-2.144531.785156-4.519531.652344-6.570312-.363282-2.046875-1.015624-3.589844-2.828124-4.265625-5.011718 11.453125-2.71875 23.089844-4.601563 34.816406-5.632813 1.921875-.160156 3.839844.320313 5.460938 1.367188zm0 0" fill="#283593"/><path d="m355.753906 198.996094c-1.277344-.425782-2.644531-.851563-4.011718-1.277344-4.519532-1.453125-9.640626-2.816406-15.101563-4.097656.957031-2.839844.304687-5.972656-1.707031-8.191406l-30.039063-29.867188c-1.335937-1.273438-3.035156-2.109375-4.863281-2.390625l-56.320312-8.019531c-.394532-.070313-.792969-.101563-1.195313-.085938h29.953125c.402344-.015625.800781.015625 1.195312.085938l56.320313 8.019531c1.828125.28125 3.523437 1.117187 4.863281 2.390625l30.039063 29.867188c2.53125 2.886718 2.804687 7.117187.660156 10.300781-2.144531 3.1875-6.164063 4.527343-9.792969 3.265625zm0 0" fill="#283593"/><path d="m336.640625 193.621094c-11.511719-2.71875-23.203125-4.601563-34.988281-5.632813-1.921875-.160156-3.839844.320313-5.460938 1.367188l-2.390625 1.621093-18.601562 12.371094c-1.386719.9375-3.019531 1.445313-4.691407 1.453125h-29.441406c-1.527344-.09375-3-.59375-4.265625-1.453125l-20.992187-13.992187c-1.621094-1.046875-3.539063-1.527344-5.460938-1.367188-7.082031.597657-14.679687 1.621094-22.101562 2.988281l-2.390625-1.621093c-1.621094-1.046875-3.539063-1.527344-5.460938-1.367188-11.726562 1.03125-23.363281 2.914063-34.816406 5.632813-1.03125-2.820313-.40625-5.976563 1.621094-8.191406l29.953125-29.78125c1.308594-1.332032 3.015625-2.199219 4.863281-2.476563l56.320313-8.019531c.394531-.070313.792968-.101563 1.195312-.085938h2.984375c.402344-.015625.800781.015625 1.195313.085938l56.320312 8.019531c1.828125.28125 3.527344 1.117187 4.863281 2.390625l30.039063 29.867188c2.011718 2.21875 2.664062 5.351562 1.707031 8.191406zm0 0" fill="#3f51b5"/><path d="m336.640625 193.621094c-.675781 2.183594-2.21875 3.996094-4.265625 5.011718-2.050781 1.015626-4.425781 1.148438-6.574219.363282-1.277343-.425782-2.644531-.851563-4.007812-1.277344-9.175781-2.851562-18.523438-5.105469-27.992188-6.742188l2.390625-1.621093c1.621094-1.046875 3.539063-1.527344 5.460938-1.367188 11.785156 1.03125 23.476562 2.914063 34.988281 5.632813zm0 0" fill="#283593"/><path d="m273.066406 110.933594h-25.601562c-9.425782 0-17.066406-7.640625-17.066406-17.066406v-76.800782c0-9.425781 7.640624-17.066406 17.066406-17.066406h17.070312c9.425782 0 17.066406 7.640625 17.066406 17.066406v85.332032c0 4.714843-3.820312 8.535156-8.535156 8.535156zm-25.601562-93.867188v76.800782h17.070312v-76.800782zm0 0"/><path d="m264.535156 512h-17.070312c-9.425782 0-17.066406-7.640625-17.066406-17.066406v-76.800782c0-9.425781 7.640624-17.066406 17.066406-17.066406h17.070312c9.425782 0 17.066406 7.640625 17.066406 17.066406v76.800782c0 9.425781-7.640624 17.066406-17.066406 17.066406zm-17.070312-93.867188v76.800782h17.070312v-76.800782zm0 0"/><path d="m494.933594 281.601562h-76.800782c-9.425781 0-17.066406-7.640624-17.066406-17.066406v-17.070312c0-9.425782 7.640625-17.066406 17.066406-17.066406h76.800782c9.425781 0 17.066406 7.640624 17.066406 17.066406v17.070312c0 9.425782-7.640625 17.066406-17.066406 17.066406zm-76.800782-34.136718v17.070312h76.800782v-17.070312zm0 0"/><path d="m93.867188 281.601562h-76.800782c-9.425781 0-17.066406-7.640624-17.066406-17.066406v-17.070312c0-9.425782 7.640625-17.066406 17.066406-17.066406h76.800782c9.425781 0 17.066406 7.640624 17.066406 17.066406v17.070312c0 9.425782-7.640625 17.066406-17.066406 17.066406zm-76.800782-34.136718v17.070312h76.800782v-17.070312zm0 0"/><path d="m477.148438 247.464844h-34.226563c-4.425781.019531-8.132813-3.351563-8.53125-7.761719-7.820313-85.992187-76.113281-154.035156-162.132813-161.527344-4.417968-.390625-7.800781-4.101562-7.785156-8.535156v-34.132813c-.003906-2.378906.980469-4.648437 2.71875-6.269531 1.738282-1.621093 4.078125-2.441406 6.445313-2.265625 112.910156 8.960938 202.683593 98.433594 212.019531 211.3125.183594 2.371094-.636719 4.714844-2.257812 6.457032-1.617188 1.742187-3.894532 2.730468-6.273438 2.722656zm-26.589844-17.066406h17.160156c-12.339844-97.109376-88.96875-173.480469-186.117188-185.496094v17.117187c88.023438 11.238281 157.417969 80.394531 168.957032 168.378907zm0 0"/><path d="m69.785156 247.464844h-34.21875c-2.378906.007812-4.65625-.980469-6.273437-2.722656-1.621094-1.742188-2.441407-4.085938-2.257813-6.457032 9.378906-112.546875 98.683594-201.855468 211.234375-211.242187 2.375-.1875 4.71875.628906 6.46875 2.25 1.746094 1.621093 2.734375 3.898437 2.726563 6.28125v34.132812c.019531 4.425781-3.34375 8.128907-7.746094 8.535157-85.710938 7.835937-153.613281 75.746093-161.433594 161.460937-.398437 4.394531-4.085937 7.765625-8.5 7.761719zm-24.804687-17.066406h17.167969c11.542968-87.707032 80.546874-156.738282 168.25-168.308594v-17.066406c-96.8125 12.347656-173.046876 88.566406-185.417969 185.375zm0 0"/><path d="m273.066406 485.035156c-4.710937 0-8.53125-3.820312-8.53125-8.535156v-34.175781c-.019531-4.433594 3.363282-8.140625 7.78125-8.53125 86.019532-7.496094 154.316406-75.535157 162.132813-161.527344.398437-4.410156 4.105469-7.785156 8.53125-7.765625h34.230469c2.378906-.007812 4.652343.980469 6.273437 2.722656 1.621094 1.742188 2.441406 4.085938 2.257813 6.457032-9.328126 112.894531-99.117188 202.382812-212.042969 211.328124-.214844.019532-.417969.027344-.632813.027344zm8.535156-35.054687v17.117187c97.152344-12.011718 173.785157-88.386718 186.128907-185.496094h-17.171875c-11.539063 87.984376-80.933594 157.140626-168.957032 168.378907zm0 0"/><path d="m238.933594 484.984375h-.664063c-112.546875-9.402344-201.84375-98.71875-211.210937-211.269531-.179688-2.371094.636718-4.714844 2.257812-6.457032 1.621094-1.742187 3.894532-2.730468 6.277344-2.722656h34.21875c4.425781-.019531 8.132812 3.351563 8.53125 7.761719 7.8125 85.703125 75.679688 153.613281 161.375 161.476563 4.402344.410156 7.765625 4.113281 7.746094 8.535156v34.175781c0 4.710937-3.820313 8.535156-8.53125 8.535156zm-193.953125-203.382813c12.355469 96.824219 88.59375 173.0625 185.417969 185.417969v-17.109375c-87.703126-11.570312-156.707032-80.601562-168.25-168.308594zm0 0"/><path d="m301.363281 289.28125c-9.613281.1875-18.902343-3.472656-25.796875-10.171875-10.144531-10.148437-15.359375-14.679687-19.566406-14.679687s-9.386719 4.53125-19.566406 14.679687c-15.285156 13.277344-37.898438 13.667969-53.632813.921875-19.96875-14.140625-30.96875-43.042969-30.96875-81.410156h17.066407c0 32.675781 8.441406 56.636718 23.765624 67.492187 8.957032 7.929688 22.300782 8.320313 31.703126.929688 12.246093-12.246094 20.480468-19.679688 31.632812-19.679688s19.386719 7.433594 31.632812 19.679688c9.402344 7.390625 22.746094 7 31.703126-.929688 15.359374-10.855469 23.753906-34.707031 23.753906-67.175781h17.066406c0 38.160156-10.996094 66.960938-30.957031 81.066406-8.101563 5.886719-17.824219 9.128906-27.835938 9.277344zm0 0"/><path d="m273.066406 375.464844h-34.132812c-11.625.921875-23.101563-3.082032-31.632813-11.03125l-25.601562-25.601563c-10.925781-13.894531-17.710938-30.589843-19.566407-48.167969l-2.652343-41.773437c-.144531-2.257813.613281-4.484375 2.109375-6.183594s3.609375-2.734375 5.867187-2.878906c4.679688-.214844 8.6875 3.3125 9.0625 7.980469l2.644531 41.8125c1.613282 13.671875 6.808594 26.675781 15.0625 37.691406l25.121094 25.078125c5.386719 4.683594 12.5 6.867187 19.585938 6.007813h34.132812c4.179688-.242188 8.050782-2.28125 10.617188-5.585938l34.550781-34.578125c7.8125-7.726563 12.921875-17.765625 14.566406-28.628906l2.652344-41.816407c.195313-3.046874 2-5.761718 4.738281-7.117187 2.734375-1.355469 5.988282-1.148437 8.53125.542969 2.542969 1.691406 3.992188 4.609375 3.796875 7.660156l-2.652343 41.796875c-1.890626 14.777344-8.589844 28.519531-19.074219 39.105469l-34.609375 34.65625c-5.730469 6.867187-14.171875 10.894531-23.117188 11.03125zm0 0"/><path d="m270.507812 213.332031h-29.015624c-3.371094.003907-6.664063-.988281-9.472657-2.855469l-20.957031-13.980468c-17.636719 1.546875-35.039062 5.101562-51.875 10.589844-7.253906 2.449218-15.253906-.246094-19.542969-6.589844-4.292969-6.34375-3.820312-14.773438 1.15625-20.597656l30.402344-30.335938c2.621094-2.597656 6.007813-4.285156 9.660156-4.8125l56.320313-8.046875c.800781-.113281 1.605468-.167969 2.414062-.167969h32.921875c.816407 0 1.632813.058594 2.441407.175782l56.320312 8.039062c3.625.527344 6.984375 2.195312 9.601562 4.761719l30.128907 29.867187c5.421875 5.832032 6.09375 14.636719 1.613281 21.222656-4.285156 6.398438-12.375 9.066407-19.625 6.46875-16.898438-5.492187-34.359375-9.058593-52.054688-10.632812l-20.949218 14.011719c-2.808594 1.878906-6.109375 2.882812-9.488282 2.882812zm-59.410156-33.945312c3.390625.015625 6.699219 1.03125 9.515625 2.917969l20.878907 13.960937h29.015624l20.964844-13.96875c3.210938-2.160156 7.058594-3.164063 10.914063-2.839844 19.109375 1.714844 37.964843 5.574219 56.210937 11.511719l-29.757812-29.320312-56.378906-8.046876h-32.921876l-56.320312 8.046876-29.96875 29.863281c18.21875-6.359375 37.167969-10.40625 56.398438-12.039063.476562-.058594.945312-.085937 1.414062-.085937zm0 0"/><path d="m230.398438 341.332031c-2.261719 0-4.429688-.898437-6.03125-2.5l-17.066407-17.066406c-3.234375-3.347656-3.1875-8.667969.101563-11.960937 3.292968-3.292969 8.617187-3.339844 11.964844-.105469l17.066406 17.066406c2.4375 2.441406 3.167968 6.113281 1.847656 9.300781s-4.429688 5.265625-7.882812 5.265625zm0 0"/><path d="m273.066406 341.332031c-3.449218 0-6.5625-2.078125-7.882812-5.265625-1.320313-3.1875-.589844-6.859375 1.851562-9.300781l17.066406-17.066406c3.347657-3.234375 8.667969-3.1875 11.960938.105469 3.292969 3.292968 3.335938 8.613281.105469 11.960937l-17.066407 17.066406c-1.601562 1.601563-3.773437 2.5-6.035156 2.5zm0 0"/></svg>