<svg height="512" viewBox="0 0 46 60" width="512" xmlns="http://www.w3.org/2000/svg"><g id="Page-1" fill="none" fill-rule="evenodd"><g id="060---Nuke-Codes" fill-rule="nonzero"><path id="Shape" d="m45 5v50c0 2.209139-1.790861 4-4 4h-36c-2.209139 0-4-1.790861-4-4v-50c.00189418-1.06064266.42236085-2.07766887 1.17-2.83l17.29 17.37c1.9572931 1.9497573 5.1227069 1.9497573 7.08 0l17.29-17.37c.7476392.75233113 1.1681058 1.76935734 1.17 2.83z" fill="#ffdc00"/><path id="Shape" d="m16.46 19.54c1.3234858 1.3106016 3.2657642 1.7769026 5.04 1.21-.7678165-.2324919-1.4678132-.6476861-2.04-1.21l-17.29-17.37c-.5284664.53714698-.89659889 1.21107532-1.063 1.946z" fill="#fec108"/><path id="Shape" d="m43.83 2.17-1.937 1.946c.0687798.28970825.1046732.58624822.107.884v50c0 2.209139-1.790861 4-4 4h3c2.209139 0 4-1.790861 4-4v-50c-.0018942-1.06064266-.4223608-2.07766887-1.17-2.83z" fill="#fec108"/><circle id="Oval" cx="23" cy="40" fill="#ff9801" r="13"/><path id="Shape" d="m23 27c-.5013727.0021196-1.0022053.0331712-1.5.093 6.5547585.7579324 11.5005523 6.3085668 11.5005523 12.907s-4.9457938 12.1490676-11.5005523 12.907c4.8017364.577143 9.5269407-1.5589761 12.2658122-5.5449953 2.7388716-3.9860191 3.0386134-9.1629598.7780779-13.4384417-2.2605356-4.2754819-6.7076311-6.9426717-11.5438901-6.923563z" fill="#f57c00"/><path id="Shape" d="m43.83 2.17-17.29 17.37c-1.9572931 1.9497573-5.1227069 1.9497573-7.08 0l-17.29-17.37c.75233113-.74763915 1.76935734-1.16810582 2.83-1.17h36c1.0606427.00189418 2.0776689.42236085 2.83 1.17z" fill="#ffeb3a"/><path id="Shape" d="m41 1h-3c1.0606427.00189418 2.0776689.42236085 2.83 1.17l-17.29 17.37c-.5721868.5623139-1.2721835.9775081-2.04 1.21 1.7742358.5669026 3.7165142.1006016 5.04-1.21l17.29-17.37c-.7523311-.74763915-1.7693573-1.16810582-2.83-1.17z" fill="#fdd834"/><path id="Shape" d="m25.98 40c.0000233.5263618-.1378909 1.0435402-.4 1.5-.678064 1.1779349-2.0633373 1.7528468-3.3762101 1.4011844-1.3128728-.3516623-2.2253032-1.5420306-2.2237899-2.9011844.0012689-.5261917.1390963-1.0430443.4-1.5.2682883-.4533674.6466326-.8317117 1.1-1.1.9285009-.5360705 2.0725043-.5358873 3.0008334.0004806.9283291.536368 1.4998543 1.527379 1.4991666 2.5995194z" fill="#37474f"/><path id="Shape" d="m21.48 42.6-2.74 4.75c-.0684899.1173642-.1817984.2017971-.3138468.233866-.1320485.0320689-.2714618.0090113-.3861532-.063866-2.3787341-1.5623405-3.8772246-4.1587348-4.04-7-.005546-.1377926.0460647-.2717576.1426264-.3702126.0965616-.098455.2294993-.152657.3673736-.1497874h5.47c-.0006876 1.072484.5712013 2.0637581 1.5 2.6z" fill="#37474f"/><path id="Shape" d="m27.22 32.66-2.74 4.74c-.9270843-.5400583-2.0729157-.5400583-3 0l-2.73-4.74c-.0723495-.1179774-.0918926-.2608937-.0538726-.3939636s.1301161-.2440893.2538726-.3060364c2.5376636-1.2802888 5.5323364-1.2802888 8.07 0 .1224283.0632839.2133069.1742947.2511682.3068091.0378612.1325144.0193474.2747802-.0511682.3931909z" fill="#37474f"/><path id="Shape" d="m31.97 40.52c-.0852187 1.4005447-.4924483 2.7625398-1.19 3.98-.7020646 1.2179505-1.6820311 2.2527403-2.86 3.02-.1153042.0744405-.2564611.0973352-.3893828.0631553s-.2455249-.1223272-.3106172-.2431553l-2.74-4.74c.4577391-.2626146.8373854-.6422609 1.1-1.1.2621091-.4564598.4000233-.9736382.4-1.5h5.48c.1371817-.0005784.2687658.0543494.3648225.1522895.0960566.0979401.1484193.2305659.1451775.3677105z" fill="#37474f"/><circle id="Oval" cx="23" cy="13" fill="#9e9e9e" r="3"/><g fill="#000"><path id="Shape" d="m41 0h-36c-2.76005315.00330612-4.99669388 2.23994685-5 5v50c.00330612 2.7600532 2.23994685 4.9966939 5 5h36c2.7600532-.0033061 4.9966939-2.2399468 5-5v-50c-.0033061-2.76005315-2.2399468-4.99669388-5-5zm0 2c.4464439.00175603.8867278.10430664 1.288.3l-16.453 16.531c-1.5694856 1.5528383-4.0965144 1.5528383-5.666 0l-16.457-16.531c.40127216-.19569336.8415561-.29824397 1.288-.3zm3 53c0 1.6568542-1.3431458 3-3 3h-36c-1.65685425 0-3-1.3431458-3-3v-50c.00274539-.44472608.10526456-.88316637.3-1.283l16.455 16.532c2.3516267 2.3308448 6.1423733 2.3308448 8.494 0l16.451-16.532c.1947354.39983363.2972546.83827392.3 1.283z"/><path id="Shape" d="m9 54h-3v-3c0-.5522847-.44771525-1-1-1s-1 .4477153-1 1v4c0 .5522847.44771525 1 1 1h4c.55228475 0 1-.4477153 1-1s-.44771525-1-1-1z"/><path id="Shape" d="m41 50c-.5522847 0-1 .4477153-1 1v3h-3c-.5522847 0-1 .4477153-1 1s.4477153 1 1 1h4c.5522847 0 1-.4477153 1-1v-4c0-.5522847-.4477153-1-1-1z"/><path id="Shape" d="m23 17c2.209139 0 4-1.790861 4-4s-1.790861-4-4-4-4 1.790861-4 4 1.790861 4 4 4zm0-6c1.1045695 0 2 .8954305 2 2s-.8954305 2-2 2-2-.8954305-2-2 .8954305-2 2-2z"/><path id="Shape" d="m31.461 39h-4.609c0-.011 0-.023-.006-.035-.1875734-.6871836-.5564476-1.3112994-1.068-1.807l2.312-4c.2055625-.3604179.2553934-.7890354.138-1.187-.1183713-.389806-.3901993-.7147-.753-.9-2.8258892-1.4159324-6.1541108-1.4159324-8.98 0-.3633173.1846515-.6353582.5098-.753.9-.118965.398822-.0690802.8289883.138 1.19l2.308 4c-.2600618.2479921-.4851308.5302535-.669.839-.1753765.3141422-.3075687.6505093-.393 1h-4.618c-.4164113.0011845-.8140776.1732656-1.1.476-.2783068.2964412-.4228861.6940341-.4 1.1.1860731 3.1536636 1.8486625 6.0348427 4.486 7.774.2421152.1597476.5259333.2446148.816.244.5372757-.0006851 1.0331533-.2886755 1.3-.755l2.3-3.991c.3467291.0990887.7053942.1502304 1.066.152.3519358-.0002919.702294-.0470288 1.042-.139.012 0 .022-.009.034-.013l2.3 3.991c.268469.4678934.7665562.7566009 1.306.757.2874323.0003479.5687968-.082672.81-.239 2.6515176-1.7346718 4.3216501-4.6254857 4.5-7.789.022178-.4058613-.1223031-.8031842-.4-1.1-.2891739-.3012558-.689423-.4704668-1.107-.468zm-11.578-6.37c1.9835089-.8291187 4.2164911-.8291187 6.2 0l-2.041 3.533c-.6853599-.1958211-1.4108611-.2030761-2.1-.021-.012 0-.022.009-.034.013zm-1.736 13.745c-1.7118006-1.3036178-2.8280673-3.2403298-3.098-5.375h4.064c0 .012 0 .024.006.036.187326.6869988.5562499 1.3108533 1.068 1.806zm3.835-4.643c-.8261865-.4772218-1.2002375-1.471583-.8934134-2.3750119s1.2090759-1.4643298 2.1550106-1.3397007c.9459347.124629 1.672119.9000802 1.7344769 1.8521497s-.5564766 1.8156157-1.4780741 2.0625629c-.5123469.1395891-1.0592917.0675279-1.518-.2zm7.928 2.268c-.5326735.9236633-1.2450292 1.7312264-2.095 2.375l-2.038-3.535c.5306431-.4928489.9006886-1.1339824 1.062-1.84h4.081c-.1299529 1.0580969-.4735726 2.0787496-1.01 3z"/><path id="Shape" d="m29.3 50.216c-4.7340198 2.9248072-10.8577199 2.2113375-14.7925287-1.7234713s-4.64827853-10.0585089-1.7234713-14.7925287c.1955671-.3038884.2119626-.689649.0428857-1.0090354s-.4973183-.5227029-.8585822-.5318159c-.3612639-.0091129-.6993387.1773957-.8843035.4878513-3.42752077 5.5219394-2.60182103 12.6769662 1.9933365 17.2730777 4.5951574 4.5961116 11.7500127 5.4232966 17.2726635 1.9969223.3104556-.1849648.4969642-.5230396.4878513-.8843035-.009113-.3612639-.2124295-.6895053-.5318159-.8585822s-.705147-.1526814-1.0090354.0428857z"/><path id="Shape" d="m32.9 30.1c-4.5765383-4.6117946-11.7329699-5.4485785-17.25-2.017-.3104556.1849648-.4969642.5230396-.4878513.8843035.009113.3612639.2124295.6895053.5318159.8585822s.705147.1526814 1.0090354-.0428857c4.7341455-2.9224179 10.8561843-2.2075955 14.7897046 1.7268776s4.6468598 10.0566848 1.7232954 14.7901224c-.2792332.4686812-.1312852 1.0746784.3325079 1.3619573.4637932.2872789 1.072253.1498096 1.3674921-.3089573 3.4334533-5.5174772 2.5970149-12.6757466-2.016-17.253z"/></g></g></g></svg>