<svg id="Capa_1" enable-background="new 0 0 512 512" height="512" viewBox="0 0 512 512" width="512" xmlns="http://www.w3.org/2000/svg"><g><g><path d="m474.526 42.269-77.961 77.961-31.416-31.416 77.961-77.961c3.804-3.804 9.973-3.804 13.777 0l17.639 17.639c3.804 3.805 3.804 9.973 0 13.777z" fill="#eaf1ff"/><path d="m461.798 29.541-77.961 77.961 12.728 12.728 77.961-77.961c3.804-3.804 3.805-9.972 0-13.777l-12.728-12.728c3.804 3.805 3.804 9.973 0 13.777z" fill="#d5e7ff"/><path d="m307.576 234.794 94.888-94.888c3.804-3.804 3.804-9.973 0-13.777l-43.214-43.213c-3.804-3.804-9.972-3.804-13.777 0l-94.888 94.888c-3.804 3.804-3.804 9.972 0 13.777l43.213 43.213c3.805 3.804 9.973 3.804 13.778 0z" fill="#f7e471"/><path d="m389.735 127.178-94.888 94.887c-3.804 3.804-9.972 3.805-13.777 0l12.728 12.728c3.804 3.805 9.972 3.804 13.777 0l94.888-94.887c3.804-3.805 3.804-9.973 0-13.777l-12.728-12.728c3.805 3.805 3.804 9.973 0 13.777z" fill="#f1cb66"/><path d="m156.581 297.382-24.923-24.923c-3.804-3.804-3.804-9.973 0-13.777l56.887-56.887c2.25-2.25 5.456-3.259 8.589-2.704l49.041 8.696z" fill="#0a617d"/><path d="m143.853 284.654 12.728 12.728 89.594-89.594-21.621-3.834z" fill="#08475e"/><path d="m131.828 249.113h164.447v44.429h-164.447z" fill="#eaf1ff" transform="matrix(.707 -.707 .707 .707 -129.164 230.827)"/><path d="m141.172 271.672h164.447v18h-164.447z" fill="#d5e7ff" transform="matrix(.707 -.707 .707 .707 -133.034 240.171)"/><path d="m281.042 432.728c-1.097-75.341-60.475-136.5-60.475-136.5l-35.031 35.031s36.037 41.626 42.145 103.519c.505 5.121 4.837 9.004 9.981 8.856l33.916-.977c5.342-.154 9.542-4.584 9.464-9.929z" fill="#08475e"/><path d="m232.265 309.985c-6.895-8.808-11.698-13.757-11.698-13.757l-35.031 35.031s4.542 5.25 10.673 14.783z" fill="#05303d"/><path d="m400.241 337.571c-77.396-30.625-124.745-96.273-124.745-96.273l-36.05 36.05s55.01 83.914 144.599 111.172c5.152 1.568 10.599-1.381 12.143-6.54l9.756-32.58c1.445-4.824-1.02-9.976-5.703-11.829z" fill="#0a617d"/><path d="m286.939 255.312c-7.484-8.529-11.443-14.013-11.443-14.013l-36.05 36.05s3.742 5.703 10.848 14.608z" fill="#08475e"/><path d="m135.617 309.175 42.173 42.173-38.657 138.399c-4.01 14.357-22.001 19.076-32.542 8.535l-66.263-66.263c-7.609-7.609-7.609-19.945 0-27.554z" fill="#08475e"/><path d="m93.863 485.554 12.728 12.728c10.541 10.541 28.532 5.822 32.542-8.535l38.657-138.399-12.728-12.728-38.657 138.399c-4.011 14.357-22.002 19.076-32.542 8.535z" fill="#05303d"/></g><path d="m480.301 22.737-17.677-17.676c-3.263-3.263-7.603-5.061-12.218-5.061s-8.954 1.798-12.217 5.061l-72.812 72.812-.597-.597c-6.737-6.737-17.697-6.735-24.434 0l-95.089 95.09c-6.736 6.737-6.736 17.697.001 24.435l.596.596-2.246 2.246-45.287-8.031c-5.553-.983-11.247.808-15.235 4.795l-57.008 57.008c-6.736 6.737-6.736 17.698.001 24.435l19.66 19.66-5.838 5.838c-2.946-2.24-7.164-2.024-9.855.665l-44.763 44.763c-2.935 2.936-2.935 7.694 0 10.63 2.935 2.934 7.694 2.934 10.629 0l39.449-39.449 33.841 33.841-37.557 134.462c-2.109 8.661-13.967 11.775-20.057 5.26l-66.403-66.402c-4.682-4.683-4.682-12.301 0-16.983l29.47-29.47c2.935-2.936 2.935-7.694 0-10.63-2.935-2.934-7.694-2.934-10.629 0l-29.47 29.47c-10.542 10.543-10.543 27.697 0 38.242l66.404 66.402c13.819 14.698 40.389 7.631 45.164-11.845l38.739-138.692c.73-2.614-.005-5.418-1.924-7.337l-.869-.869 2.579-2.579c9.778 13.621 31.024 47.827 35.492 93.108.875 8.87 8.383 15.657 17.205 15.657.164 0 .329-.002.494-.007l33.986-.98c9.393-.27 16.922-8.153 16.784-17.572-.952-65.331-42.983-119.414-57.744-136.423l7.571-7.571c6.267 8.428 17.954 23.053 34.507 39.231 23.412 22.881 61.359 53.211 109.186 67.763 8.826 2.895 19.084-2.623 21.556-11.589l9.776-32.65c2.548-8.513-1.909-17.737-10.149-20.998-8.969-3.549-17.992-7.779-26.818-12.572-3.646-1.98-8.211-.629-10.191 3.018-1.981 3.647-.63 8.211 3.018 10.191 9.356 5.081 18.932 9.569 28.46 13.34 1.05.415 1.613 1.606 1.282 2.711l-9.777 32.649c-.632 1.415-1.329 1.761-2.782 1.52-73.632-22.404-123.988-85.24-137.298-103.381l25.631-25.631c9.927 12.194 33.171 38.329 67.298 62.007 3.37 2.349 8.079 1.544 10.46-1.891 2.366-3.411 1.52-8.093-1.891-10.46-33.542-23.272-56.455-49.576-65.161-60.363l2.426-2.426.596.596c3.264 3.263 7.603 5.061 12.218 5.061s8.954-1.798 12.217-5.062v.001l95.089-95.089c3.263-3.264 5.06-7.603 5.06-12.218s-1.798-8.954-5.06-12.216l-.597-.598 28.293-28.292c2.936-2.936 2.936-7.694.001-10.629-2.936-2.936-7.695-2.935-10.629-.001l-28.293 28.293-20.853-20.854 72.813-72.812c.543-.543 1.164-.658 1.587-.658.425 0 1.045.115 1.588.659l17.677 17.677c.876.875.876 2.301 0 3.176l-23.267 23.263c-2.935 2.936-2.935 7.694 0 10.63 2.936 2.934 7.694 2.934 10.63 0l23.262-23.263c6.735-6.737 6.734-17.699-.001-24.435zm-125.075 153.879-46.481-46.481 15.394-15.394 46.481 46.48zm-26.023 26.023-46.481-46.481 15.394-15.394 46.481 46.481zm-192.495 64.582c-.876-.877-.876-2.302-.001-3.178l57.008-57.007c.519-.52 1.258-.758 1.981-.624l34.945 6.197-74.273 74.273zm136.87 166.032c.019 1.269-.941 2.292-2.186 2.327l-33.986.98c-1.215.063-2.186-.869-2.308-2.1-5.062-51.294-29.544-88.825-39.676-102.408l24.748-24.748c14.062 16.571 52.552 67.218 53.408 125.949zm-102.14-98.477-20.853-20.853 105.898-105.898 20.853 20.853zm130.929-105.301v.001c-1.148.921-2.028.921-3.176-.001l-43.305-43.303c-.876-.877-.876-2.302-.001-3.178l16.206-16.206 46.481 46.481zm95.089-95.089-16.205 16.205-46.481-46.48 16.206-16.206c.875-.876 2.301-.875 3.176-.001l43.305 43.306c.921 1.149.921 2.028-.001 3.176z"/></g></svg>