<svg id="Capa_1" enable-background="new 0 0 512 512" height="512" viewBox="0 0 512 512" width="512" xmlns="http://www.w3.org/2000/svg"><g><g><g><g><g><g><g><g><g><circle cx="256" cy="256" fill="#9bc5ff" r="256"/></g></g></g></g></g></g></g></g><path d="m47.954 303.214 208.786 208.785c141.044-.399 255.26-114.861 255.26-255.999 0-2.887-.048-5.762-.143-8.626l-38.108-38.107-7.721.984-18.974-18.974-11.441 22.85-113.45 14.458-31.793-31.795-16.503 10.482-33.985-33.985z" fill="#69a8ff"/><g><path d="m198.39 338.677h-35.109l16.249-76.021h35.109z" fill="#414952"/></g><g><path d="m217.25 258.991-169.296 44.223v-101.427h169.296z" fill="#555a66"/></g><g><path d="m47.954 223.536v79.678l169.296-44.223v-35.455z" fill="#414952"/></g><g><path d="m447.055 216.231-41.202 7.544v-10.881l41.202-21.617z" fill="#414952"/></g><g><path d="m189.395 173.287h50.487v31.337h-50.487z" fill="#555a66"/></g><g><path d="m266.577 209.267h207.173v29.306h-207.173z" fill="#555a66"/></g><g><path d="m266.577 223.536h207.173v15.037h-207.173z" fill="#414952"/></g><g><path d="m310.101 358.988h-43.524l-30.757-96.332h43.524z" fill="#414952"/></g><g><path d="m166.763 196.79h123.607v83.565h-123.607z" fill="#707789"/></g><g><path d="m166.763 223.536h123.607v56.819h-123.607z" fill="#636978"/></g><g><path d="m189.395 233.962h77.182v26.2h-77.182z" fill="#414952"/></g></g></svg>